PathFileType	4	(X/Y/Z)	C:\Users\WrightLab\Desktop\Jo\P2_Trial35.trc
DataRate	CameraRate	NumFrames	NumMarkers	Units	OrigDataRate	OrigDataStartFrame	OrigNumFrames
100.00	100.00	      23	19	mm	100.00	431	      1148
Frame#	Time	Headset_Front			Headset_Back			Headset_Left			Headset_Right			Left_Shoulder			Right_Shoulder			Sternum			C7			Left Elbow			Right Elbow			Left Wrist			Right Wrist			Left ASIS			Right ASIS			S2			Left Knee			Right Knee			Left Ankle			Right Ankle			
		X1	Y1	Z1	X2	Y2	Z2	X3	Y3	Z3	X4	Y4	Z4	X5	Y5	Z5	X6	Y6	Z6	X7	Y7	Z7	X8	Y8	Z8	X9	Y9	Z9	X10	Y10	Z10	X11	Y11	Z11	X12	Y12	Z12	X13	Y13	Z13	X14	Y14	Z14	X15	Y15	Z15	X16	Y16	Z16	X17	Y17	Z17	X18	Y18	Z18	X19	Y19	Z19	

431	4.300	123.92999	1470.81628	1523.81958	5.76915	1664.33289	1545.82910				134.42722	1461.86218	1732.99451	13.56575	1360.42798	1457.78601	-97.26479	1538.68396	1494.54944				-50.24951	1493.11182	1776.26892				-321.47849	1112.94238	1576.28601							48.69163	1028.65417	1753.34485				-148.40207	1029.44312	1952.24243	-265.37094	493.66016	1762.51526	77.37917	591.10834	1943.45740	-310.88641	141.08952	1797.94373	65.28500	155.39438	1897.18445	
432	4.310	124.20899	1470.81177	1523.89453	5.79038	1664.30566	1545.93506				134.41492	1461.85510	1732.93103	13.60070	1360.41431	1457.41626	-96.99745	1538.23389	1494.31323				-50.26949	1493.08435	1776.19336				-321.33859	1113.11096	1577.12170							48.64445	1028.62622	1753.36707				-148.43752	1029.35608	1952.49365	-265.19650	493.66373	1762.60669	77.37025	591.09808	1943.46631	-310.85513	141.04700	1797.99377	65.27974	155.38934	1897.18726	
433	4.320	124.40572	1470.41626	1524.17639	5.79923	1664.26343	1545.98755				134.41486	1461.84875	1732.93225	13.60070	1360.41431	1457.41626	-96.97014	1538.24255	1494.42761				-50.27262	1493.05054	1776.19116	269.71683	1071.14258	1645.15942	-320.73254	1113.31274	1576.36060							48.62009	1028.63928	1753.39404				-148.61963	1029.54639	1952.91577	-265.04242	493.62756	1762.67004	77.36230	591.08405	1943.48547	-310.86078	141.05310	1797.98596	65.28125	155.39154	1897.18494	
434	4.330	124.43820	1470.29626	1523.94385	5.95908	1663.97766	1545.86023				134.41188	1461.87830	1732.90881	33.36548	1369.62476	1461.74670	-96.97395	1538.21960	1494.41833				-50.29706	1493.00513	1776.10254				-320.47427	1113.47156	1576.37158							48.63833	1028.59009	1753.35181				-148.59677	1029.56433	1952.99817	-264.63779	493.95090	1762.38843	77.18195	591.02124	1943.69153	-310.85950	141.02548	1798.00708	65.26799	155.37965	1897.19019	
435	4.340	124.19725	1470.13721	1524.27222	5.94676	1663.88843	1545.82666				134.38127	1461.86633	1732.74939	33.30595	1369.64746	1461.34485	-96.97391	1538.17920	1494.43103				-50.31599	1492.94897	1776.04077	260.94998	1141.65222	1796.32629	-320.41348	1113.63989	1577.18018							48.54836	1028.63062	1753.44690				-148.49937	1029.36279	1953.00610	-264.21310	493.59531	1762.89221	77.18821	591.01819	1943.70837	-310.87497	141.02119	1798.00085	65.26497	155.37383	1897.19775	
436	4.350	124.25909	1469.98608	1524.47327	5.93393	1663.83789	1545.78040							33.21395	1369.49609	1461.71130	-96.97881	1538.14929	1494.41931				-50.31997	1492.94043	1776.02673	260.91974	1141.71338	1796.45410	-319.89679	1113.81091	1576.40381							48.44577	1028.64001	1753.53467				-148.47855	1029.38147	1953.08032	-264.10797	493.59543	1762.91504	77.18768	591.00842	1943.72949	-310.86880	141.00591	1798.01587	65.24891	155.36121	1897.20044	
437	4.360	124.17773	1470.03101	1524.49048	5.92755	1663.77026	1545.76880							33.13389	1369.43896	1461.29211	-96.99083	1538.10266	1494.38220				-50.63425	1493.08118	1776.57495	260.51523	1141.94238	1795.80872	-319.82013	1113.99658	1577.20923							48.46769	1028.65466	1753.52527				-148.46872	1029.23096	1953.25159	-264.00650	493.57773	1762.91907	77.02077	590.94000	1943.95813	-310.87070	140.98907	1798.02710	65.24570	155.35818	1897.20203	
438	4.370	124.18083	1469.90942	1524.45190	5.91147	1663.71423	1545.70886							33.25725	1369.12939	1462.05774	-97.01184	1538.04199	1494.31091				-50.64098	1493.05933	1776.55359	260.40601	1142.03650	1796.00195	-319.30960	1114.20007	1576.41528							48.40100	1028.61072	1753.55432				-148.43877	1029.26599	1953.35474	-263.97485	493.57388	1762.92957	77.02881	590.93280	1943.98718	-310.85693	140.97017	1798.04919	65.24111	155.34898	1897.21423	
439	4.380	123.83055	1469.76746	1524.70300	5.87084	1663.62695	1545.54309							33.17724	1369.01440	1461.91028	-97.04933	1537.95813	1494.17627				-50.64592	1493.03345	1776.54114	260.08655	1142.33313	1795.30457	-318.97778	1114.39160	1576.43542							48.38731	1028.60828	1753.56396				-148.41737	1029.28198	1953.43237	-263.97473	493.55734	1762.91235	77.04153	590.92383	1944.02747	-310.85474	140.26585	1797.46021	65.22898	155.34160	1897.21191	
440	4.390	123.77509	1469.71765	1524.68591	5.84406	1663.55652	1545.43726							33.08294	1369.00928	1462.02271	-97.07819	1537.85889	1494.08337				-50.65744	1492.99158	1776.50610	259.88406	1142.78479	1794.43335	-318.69263	1114.58997	1576.43640							48.35286	1028.60229	1753.58838				-148.40674	1029.26379	1953.48157	-264.00302	493.59714	1762.91577	77.04787	590.91626	1944.05469	-310.88171	140.98779	1798.02136	65.22050	155.33044	1897.22253	
441	4.400	123.51750	1469.75195	1524.91638	5.59747	1663.42346	1545.55688							33.08743	1368.68237	1462.26331	-97.12149	1537.78357	1493.92114				-50.66814	1492.97168	1776.46741	260.04016	1143.03491	1794.30286	-318.55844	1115.18237	1575.95752							48.24191	1028.62317	1753.68933				-148.38303	1029.27893	1953.56860	-264.06039	493.58942	1762.90466	77.09237	590.82605	1944.15784	-310.87274	140.97340	1798.03735	65.21840	155.32718	1897.22607	
442	4.410	123.39265	1469.51758	1524.67920	5.32163	1663.34485	1545.74170							32.92128	1368.61755	1462.23987	-97.51153	1537.48499	1494.40576				-50.68086	1492.92432	1776.42908	259.79300	1143.23169	1794.04236	-318.11716	1115.04187	1576.41370							48.16705	1028.60107	1753.73718				-148.68536	1029.48596	1954.30334	-264.16040	493.58051	1762.91980	77.25256	590.72046	1945.20129	-310.87860	140.97725	1798.03101	65.21273	155.32001	1897.23267	
443	4.420	123.27271	1469.53564	1524.87854	5.01542	1663.30396	1545.90100							32.83590	1368.49402	1462.74915	-97.59283	1537.31091	1494.11145				-50.72151	1492.85571	1776.27954													48.10149	1028.58972	1753.78357				-148.67850	1029.48010	1954.33276	-264.29883	493.59811	1762.91846	77.25909	590.72119	1945.21008	-310.87488	140.97234	1798.03687	65.20840	155.31906	1897.22839	
444	4.430	123.24967	1469.41785	1524.99329	4.81036	1663.17566	1546.08667							32.66945	1368.46545	1463.00415	-97.66781	1537.14368	1493.84216				-50.92544	1492.80591	1776.57495	-318.25031	1117.09412	1575.58203										48.06501	1028.56836	1753.80090				-148.82217	1029.54956	1954.76099	-264.95566	493.10547	1763.92017	77.27086	590.71478	1945.24316	-310.87650	140.97385	1798.03479	65.10245	155.17679	1897.46899	
445	4.440	122.96064	1469.39490	1525.09253	4.75954	1663.10461	1545.86938							32.52326	1368.43823	1462.98950	-97.76743	1536.95581	1493.47388				-51.37759	1493.01160	1777.05884	-318.58124	1118.06079	1575.97375	-335.11646	1335.08191	1056.86316							48.04221	1028.58643	1753.82935				-148.79602	1029.55713	1954.86060	-265.42215	493.46704	1763.49133	77.26991	590.70679	1945.25964	-310.87039	140.95068	1798.05542	65.08485	155.16679	1897.46423	
446	4.450	122.76852	1469.12207	1525.04321	4.28522	1663.48328	1546.31897							32.25852	1368.36316	1463.21375	-97.84499	1536.81970	1493.18384				-51.40930	1492.93909	1776.94861	-318.32172	1118.26685	1575.96216										47.91427	1028.60022	1753.93994				-148.77119	1029.57068	1954.95251	-266.00977	493.53540	1764.72974	77.26973	590.69128	1945.29431	-310.86603	140.95070	1798.05811	65.08894	155.16373	1897.47632	
447	4.460	122.22433	1469.64709	1525.39429	4.24584	1663.41028	1546.15552							32.22377	1368.41162	1463.22131	-97.93898	1536.61646	1492.84460				-52.03141	1493.03442	1777.66284	-318.01263	1118.46558	1575.97107										47.90750	1028.56384	1753.92505				-148.74872	1029.54883	1955.04993	-266.24142	493.53970	1764.76672	77.36439	590.62164	1945.31030	-310.86337	140.94936	1798.06067	65.08974	155.16476	1897.47534	
448	4.470	122.25036	1469.42664	1525.28198	3.94918	1663.44873	1546.40356							31.91260	1368.29565	1463.17859	-98.02773	1536.45520	1492.51465				-52.29387	1493.02002	1777.84924	-317.82370	1118.61035	1575.96521										47.42881	1028.79626	1754.13806				-148.72188	1029.55127	1955.15442	-266.73883	493.38248	1765.44971	77.36018	590.60034	1945.35181	-310.84906	140.90567	1798.10132	65.08219	155.16257	1897.46912	
449	4.480	121.98622	1469.46167	1525.53271	3.65617	1663.56299	1546.68884							31.76635	1368.29980	1463.17017	-98.40514	1536.18457	1493.04517				-52.34776	1492.93042	1777.65112	-317.79980	1118.75146	1576.77319	-335.37457	1331.02466	1071.24548							47.35817	1028.79968	1754.19678				-148.69934	1029.53491	1955.24988	-267.00015	493.40359	1765.46057	77.35313	590.59052	1945.36279	-310.83896	140.89186	1798.11755	65.09604	155.16913	1897.47534	
450	4.490	121.83023	1469.20642	1525.76587	3.62776	1663.49731	1546.57458							31.73256	1368.08362	1463.31689							-52.73458	1492.91492	1777.93604	-317.27856	1118.91833	1576.00146										47.27279	1029.07178	1753.61230				-148.69873	1029.47864	1955.27576	-267.10165	493.63123	1765.68408	77.35163	590.58380	1945.37561	-310.79062	140.82875	1798.19299	65.09791	155.17038	1897.47546	
451	4.500	121.56030	1469.11865	1525.58472	3.30425	1663.57068	1546.89575							31.42616	1368.29065	1463.60083							-52.96953	1492.85229	1778.10388	-317.17816	1118.98206	1576.00476										47.27090	1029.13550	1753.64941				-148.66248	1029.50232	1955.40845	-267.53723	494.03336	1765.42773	77.34088	590.56842	1945.39319	-310.79370	140.08780	1797.62769	65.09488	155.16115	1897.48987	
452	4.510	121.45980	1468.93774	1525.76392	2.94575	1663.83264	1547.26672							31.14123	1368.49023	1463.38477							-53.04280	1492.74097	1777.83130	-317.97943	1120.28052	1576.99512							261.67557	1148.19275	1796.35559	47.16199	1029.19800	1753.77197				-148.76634	1029.42639	1955.77136	-267.76590	494.02722	1765.46851	77.33976	590.55298	1945.42639	-310.77536	140.03844	1797.67493	65.09760	155.16589	1897.48413	
453	4.520	121.41419	1469.04541	1525.99109	2.70766	1663.72424	1547.45422							30.95159	1368.56226	1463.38733							-53.07566	1492.67566	1777.71411	-317.28091	1119.97144	1575.88367							261.90216	1148.36560	1796.10474	46.41740	1028.92798	1750.33691				-148.75734	1029.39099	1955.82166	-268.10556	493.99512	1766.50305	77.38471	590.46417	1945.49719	-310.74454	139.98846	1797.73022	65.10342	155.16643	1897.49133	
